PathFileType	4	(X/Y/Z)	C:/Users/opensim2020/Desktop/walking_exp_matlab/subject03_walking05_straight_03.trc	
DataRate	CameraRate	NumFrames	NumMarkers	Units	OrigDataRate	OrigDataStartFrame	OrigNumFrames	
100.00	100.00	4	45	mm	100.00	2257	293	
Frame#	Time	LFHD			RFHD			LBHD			RBHD			C7			T10			CLAV			STRN			RBAK			LSHO			LUPA			LELB			LFRM			LWRA			LWRB			LFIN			RSHO			RUPA			RELB			RFRM			RWRA			RWRB			RFIN			LASI			RASI			LPSI			RPSI			LTHI			LKNE			LTIB			LANK			LHEE			LTOE			RTHI			RKNE			RTIB			RANK			RHEE			RTOE			*39			*40			*41			*42			*43			*44			
		X1	Y1	Z1	X2	Y2	Z2	X3	Y3	Z3	X4	Y4	Z4	X5	Y5	Z5	X6	Y6	Z6	X7	Y7	Z7	X8	Y8	Z8	X9	Y9	Z9	X10	Y10	Z10	X11	Y11	Z11	X12	Y12	Z12	X13	Y13	Z13	X14	Y14	Z14	X15	Y15	Z15	X16	Y16	Z16	X17	Y17	Z17	X18	Y18	Z18	X19	Y19	Z19	X20	Y20	Z20	X21	Y21	Z21	X22	Y22	Z22	X23	Y23	Z23	X24	Y24	Z24	X25	Y25	Z25	X26	Y26	Z26	X27	Y27	Z27	X28	Y28	Z28	X29	Y29	Z29	X30	Y30	Z30	X31	Y31	Z31	X32	Y32	Z32	X33	Y33	Z33	X34	Y34	Z34	X35	Y35	Z35	X36	Y36	Z36	X37	Y37	Z37	X38	Y38	Z38	X39	Y39	Z39	X40	Y40	Z40	X41	Y41	Z41	X42	Y42	Z42	X43	Y43	Z43	X44	Y44	Z44	X45	Y45	Z45	

147	1.460	-1069.79248	-194.80484	1597.53064	-937.83160	-215.33025	1599.67542	-1086.47217	-326.20416	1569.34875	-956.15149	-341.62158	1570.52234	-1028.68506	-375.55032	1401.10022	-1023.18909	-407.85144	1086.25854	-1023.43030	-255.14050	1323.21643	-1032.44214	-209.76678	1159.11365	-939.51007	-434.47546	1221.74463	-1179.57996	-298.21893	1362.89758	-1261.21692	-275.53757	1175.49646	-1278.99487	-233.66876	1062.18384	-1267.13550	-145.85458	970.17188	-1223.99426	-65.85907	890.03308	-1273.87878	-83.55990	874.86182	-1257.73535	-18.75243	825.59167	-864.69659	-310.65005	1344.84680	-800.55731	-335.83743	1120.63379	-793.00293	-333.34601	1006.26312	-797.36591	-334.12567	869.18555	-837.94818	-316.76889	771.88794	-793.43970	-347.78992	769.34125	-808.72229	-337.13196	695.52875	-1149.55566	-253.92870	919.47803	-911.18762	-234.59543	922.88971	-1083.32373	-411.48520	945.43420	-935.12860	-397.91968	950.89990	-1177.89783	-360.67975	626.78168	-1142.33325	-400.17157	451.50528	-1134.52527	-529.30847	296.04980	-1085.44971	-637.25494	115.39549	-1048.40393	-687.19635	103.21533	-1051.53210	-513.05585	26.82232	-869.75116	-237.00473	632.62762	-912.73810	-178.84860	463.62378	-912.50696	-169.71930	277.15735	-960.93115	-129.96037	65.47712	-1015.85950	-169.89539	34.99898	-972.27924	12.79217	34.72596	-1028.86462	-276.50540	1668.99658															 
148	1.470	-1069.27759	-184.54962	1598.50391	-937.26569	-204.88788	1600.62866	-1085.77869	-316.01517	1570.61450	-955.30811	-330.93634	1571.73157	-1027.70532	-365.27661	1402.06775	-1023.32483	-396.49228	1086.83179	-1023.01184	-244.86833	1324.43799	-1032.20630	-198.82831	1160.57764	-938.64014	-423.62537	1222.09875	-1179.24280	-288.66406	1363.66870	-1260.64441	-267.64276	1175.58679	-1277.99927	-226.61752	1061.85205	-1266.42456	-139.09439	969.32904	-1223.48450	-59.30141	889.12274	-1273.09595	-77.46834	873.68335	-1257.26929	-12.58701	824.59875	-864.00269	-299.87878	1345.46875	-800.01868	-323.99951	1120.94482	-792.44775	-321.06796	1006.49982	-796.81390	-321.85690	869.45667	-837.50745	-304.70486	772.11658	-792.82532	-335.41019	769.56445	-808.23419	-324.65176	695.87030	-1149.25684	-241.85445	919.58691	-910.91907	-222.53462	924.74652	-1083.32288	-399.47153	945.44635	-935.09125	-386.06259	952.79614	-1178.36938	-347.08899	626.23779	-1144.01636	-385.82321	450.70560	-1135.30298	-519.22992	298.27921	-1085.73157	-631.92560	121.15086	-1048.21631	-681.85938	111.37574	-1051.39648	-512.65320	26.79352	-869.53906	-227.31819	634.38324	-912.79053	-169.19469	465.03458	-911.98792	-162.09833	278.01016	-961.58636	-129.00977	65.69065	-1016.22015	-169.96498	35.05029	-973.59363	13.64537	33.75966	-1028.56787	-265.76242	1670.09900															 
149	1.480	-1068.76196	-174.25832	1599.71008	-936.69812	-194.34741	1601.79456	-1085.00000	-305.81250	1572.09387	-954.54041	-320.49014	1573.24927	-1026.73047	-354.97330	1403.41174	-1023.52747	-385.36020	1087.86560	-1022.61615	-234.56265	1325.95300	-1031.89929	-187.89163	1162.32104	-937.66742	-412.81625	1222.91675	-1178.96033	-279.17050	1365.06775	-1259.76465	-259.78574	1176.08472	-1276.99133	-219.54500	1061.82422	-1265.62878	-132.69807	968.58887	-1222.97229	-53.29773	888.01501	-1272.34241	-72.01866	872.43146	-1256.93225	-7.20560	823.32019	-863.39441	-289.15463	1346.46875	-799.54303	-311.93970	1121.68372	-791.92639	-308.56744	1007.23767	-796.22461	-309.16766	870.20892	-837.08093	-292.17554	772.79657	-792.14099	-322.64117	770.24103	-807.28174	-312.02130	696.56970	-1148.77380	-229.79689	920.00830	-910.64923	-210.78738	927.21533	-1083.46777	-387.29462	945.66870	-935.33264	-374.45963	955.13501	-1178.93433	-332.78186	625.76416	-1146.08301	-370.23795	449.84277	-1136.26917	-507.73886	300.70743	-1085.78894	-625.47119	127.66575	-1047.73779	-675.05145	120.48050	-1051.22351	-512.04169	26.75707	-869.01776	-217.78636	636.65210	-913.08386	-159.17088	466.89349	-911.41949	-155.79977	278.79834	-962.03790	-128.27670	65.85097	-1015.97931	-169.78711	35.05687	-975.08313	14.36418	33.44300	-1026.86951	-256.55151	1670.56335															 
150	1.490	-1068.15662	-163.92789	1601.04077	-936.46429	-183.67360	1603.21265	-1084.26392	-295.63458	1573.84827	-953.74182	-310.04309	1574.89099	-1025.89807	-344.65085	1404.96484	-1023.67676	-374.39880	1089.09473	-1022.17651	-224.32130	1327.62061	-1031.66675	-177.02618	1164.24646	-936.73706	-401.98883	1224.05432	-1178.52209	-269.54825	1366.80603	-1258.77002	-251.88828	1177.01001	-1275.72351	-212.45711	1062.31970	-1264.69275	-126.68242	968.02582	-1222.47302	-47.88061	886.75818	-1271.58936	-67.19141	871.15729	-1256.73584	-2.64230	821.76147	-862.83441	-278.40128	1347.79065	-799.10052	-299.66885	1122.85754	-791.55371	-295.69583	1008.41040	-795.41907	-296.13577	871.40387	-836.56616	-279.26978	773.94049	-791.31244	-309.39014	771.40649	-806.63831	-298.54944	697.69104	-1148.02148	-217.65247	920.73395	-910.40729	-199.28220	930.06848	-1083.98083	-375.32632	946.62592	-935.75769	-363.13382	957.72021	-1179.61316	-317.88055	625.31549	-1148.69873	-353.34439	448.95450	-1137.20850	-494.96109	303.19330	-1085.85291	-617.50067	134.67781	-1047.19214	-666.47980	130.32169	-1051.16321	-511.51718	26.54752	-868.47266	-207.66183	639.19366	-913.07074	-149.81487	468.85461	-910.82117	-150.69075	279.73853	-961.74438	-127.96329	66.35844	-1015.67999	-169.74142	35.17297	-975.06946	14.64137	33.19563																		 
